<?xml version="1.0" standalone="no"?>
<!DOCTYPE svg PUBLIC "-//W3C//DTD SVG 20010904//EN"
 "http://www.w3.org/TR/2001/REC-SVG-20010904/DTD/svg10.dtd">
<svg version="1.0" xmlns="http://www.w3.org/2000/svg"
 width="192.000000pt" height="192.000000pt" viewBox="0 0 192.000000 192.000000"
 preserveAspectRatio="xMidYMid meet">
<metadata>
Created by potrace 1.11, written by Peter Selinger 2001-2013
</metadata>
<g transform="translate(0.000000,192.000000) scale(0.100000,-0.100000)"
fill="#000000" stroke="none">
<path d="M845 1900 c-3 -5 -14 -7 -25 -5 -23 4 -162 -30 -194 -48 -12 -6 -27
-12 -34 -13 -30 -5 -43 -14 -36 -25 4 -8 3 -9 -5 -5 -10 6 -116 -45 -131 -63
-3 -3 -23 -19 -44 -35 -62 -47 -157 -147 -150 -158 4 -6 2 -8 -3 -5 -19 12
-151 -212 -138 -233 4 -6 2 -10 -3 -10 -10 0 -31 -61 -35 -100 -1 -14 -5 -27
-9 -30 -4 -4 -9 -24 -11 -46 -2 -23 -7 -46 -10 -51 -8 -13 -2 -223 8 -280 4
-24 11 -43 16 -43 5 0 6 -6 3 -14 -8 -21 36 -147 49 -139 5 3 7 2 4 -4 -7 -12
14 -73 25 -73 4 0 8 -5 8 -12 0 -38 189 -266 209 -253 6 3 9 0 6 -7 -3 -8 20
-30 62 -58 38 -24 70 -43 72 -41 2 1 7 -2 10 -7 9 -13 112 -64 118 -58 3 3 12
-2 21 -10 8 -9 23 -13 34 -11 10 3 16 2 14 -2 -6 -9 77 -31 142 -39 70 -8 262
-10 262 -3 0 3 15 6 34 7 41 1 197 44 191 53 -2 4 5 7 15 8 19 2 90 32 100 42
3 4 17 12 32 20 15 8 36 22 46 31 10 9 23 19 29 21 29 11 132 113 186 184 63
83 153 257 142 275 -3 5 -2 10 3 10 8 0 17 24 27 80 17 86 20 120 19 215 0
118 -17 238 -34 243 -6 2 -8 8 -5 12 9 15 -26 110 -38 103 -6 -3 -7 -1 -3 5
22 36 -210 358 -243 337 -6 -3 -9 0 -6 7 5 12 -114 101 -131 98 -4 -1 -10 3
-13 8 -10 16 -111 63 -121 57 -6 -4 -10 -2 -10 3 0 13 -127 52 -192 59 -89 10
-258 12 -263 3z"/>
</g>
</svg>
